# xmcd
#
# Track frame offsets:
#	150
#	10542
#	25210
#	40317
#	53942
#	69250
#	86942
#	104097
#	115287
#	130029
#	140267
#	161567
#	171965
#	186352
#
# Disc length: 2764 seconds
#
# Revision: 2
# Processed by: cddbd v1.5.2PL0 Copyright (c) Steve Scherf et al.
# Submitted via: audiograbber 1.83.01
#
DISCID=bf0aca0e
DTITLE=Various Artist - Cool Country Tracks (Fab 14)
DYEAR=2000
DGENRE=Country
TTITLE0=Dale Watson - Good Luck 'N' Good Truckin' Tonite
TTITLE1=The Woodys -  Circle Of Angels
TTITLE2=Alison Krauss and Union Station - So Long, So Wrong
TTITLE3=Jim Lauderdale - Seems Like You're Gonna Take Me Back
TTITLE4=The Delevantes - Long About That Time
TTITLE5=Heather Myles - True Love
TTITLE6=Ray Wylie Hubbard - Without Love (We're Just Wastin' Time)
TTITLE7=Rice, Rice, Hillman and Pedersen - Story Of Love
TTITLE8=Chip Taylor and Guy Clark - One Hell Of A Guy
TTITLE9=Kay Adams and BR5-49 - Mama Was A Rock
TTITLE10=Tish Hinojosa - Poquita Fe
TTITLE11=Terri Hendrix - The Know How
TTITLE12=Rosie Flores - Bring It On
TTITLE13=Tanya Savory - Passed Him By
EXTD=YEAR: 2000
EXTT0=
EXTT1=
EXTT2=
EXTT3=
EXTT4=
EXTT5=
EXTT6=
EXTT7=
EXTT8=
EXTT9=
EXTT10=
EXTT11=
EXTT12=
EXTT13=
PLAYORDER=
